<svg xmlns="http://www.w3.org/2000/svg" viewBox="0 0 106.38 116.4"><defs><style>.cls-1{fill:#c82e29;}.cls-2{fill:#ffc000;}</style></defs><title>10</title><g id="Ebene_2" data-name="Ebene 2"><g id="Ebene_1-2" data-name="Ebene 1"><path class="cls-1" d="M34,109H16.57V28H0V16c6-.14,13.92-1.81,17-5,2.36-2.5,3.62-5.29,4.73-9.19H34Z"/><path class="cls-1" d="M100.38,87.71c0,16.71-8.77,22.69-21.3,22.69-13.36,0-22.13-6.41-22.13-23.53V22.14C56.94,6.69,66,0,78.94,0s21.44,6.13,21.44,21.86Zm-17.26-67c0-4.73-1.25-6.4-4.17-6.4-3.2,0-4.46,1.67-4.46,6.68V89c0,5.15,1.11,7.1,4.46,7.1,2.78,0,4.17-1.95,4.17-6.82Z"/><path class="cls-2" d="M40,115H22.57V34H6V22c6-.14,13.92-1.81,17-5,2.36-2.5,3.62-5.29,4.73-9.19H40Z"/><path class="cls-2" d="M106.38,93.71c0,16.71-8.77,22.69-21.3,22.69-13.36,0-22.13-6.41-22.13-23.53V28.14C62.94,12.69,72,6,84.94,6s21.44,6.13,21.44,21.86Zm-17.26-67c0-4.73-1.25-6.4-4.17-6.4-3.2,0-4.46,1.67-4.46,6.68V95c0,5.15,1.11,7.1,4.46,7.1,2.78,0,4.17-1.95,4.17-6.82Z"/></g></g></svg>