<svg xmlns="http://www.w3.org/2000/svg" viewBox="0 0 78.1 197.24"><defs><style>.cls-1{fill:#c82e29;}.cls-2{fill:#ffc000;}</style></defs><title>3</title><g id="Ebene_2" data-name="Ebene 2"><g id="Ebene_1-2" data-name="Ebene 1"><path class="cls-1" d="M72.1,152.65c0,23.88-13.26,38.59-37.38,38.59C11.09,191.24.24,176.76.24,152.89A135.25,135.25,0,0,1,1.93,129.5L26,131.43A108.39,108.39,0,0,0,24.6,151c0,12.06,3.13,15.68,9.16,15.68s8.44-4.34,8.44-13.5V123.71c0-14.95-2.41-19.29-16.64-19.29H22.19V81.27H24.6c14.23,0,16.88-3.86,16.88-18.33V35.69c0-8.2-2.65-11.58-7.47-11.58-6.27,0-9.4,5.31-9.4,13,0,5.06.48,8.92.72,13.5L1.2,52.33A106,106,0,0,1,0,35.45C0,13.74,13.75,0,35.45,0,56.91,0,71.14,10.85,71.14,36.41v27c0,14.95-3.38,22.42-12.3,28,10.85,5.06,13.26,18.81,13.26,28.94Z"/><path class="cls-2" d="M78.1,158.65c0,23.88-13.26,38.59-37.38,38.59-23.63,0-34.49-14.47-34.49-38.35A135.25,135.25,0,0,1,7.93,135.5L32,137.43A108.39,108.39,0,0,0,30.6,157c0,12.06,3.13,15.68,9.16,15.68s8.44-4.34,8.44-13.5V129.71c0-14.95-2.41-19.29-16.64-19.29H28.19V87.27H30.6c14.23,0,16.88-3.86,16.88-18.33V41.69c0-8.2-2.65-11.58-7.47-11.58-6.27,0-9.4,5.31-9.4,13,0,5.06.48,8.92.72,13.5L7.2,58.33A106,106,0,0,1,6,41.45C6,19.74,19.75,6,41.45,6,62.91,6,77.14,16.85,77.14,42.41v27c0,14.95-3.38,22.42-12.3,28,10.85,5.06,13.26,18.81,13.26,28.94Z"/></g></g></svg>