<svg xmlns="http://www.w3.org/2000/svg" viewBox="0 0 65.7 161.8"><defs><style>.cls-1{fill:#c82e29;}.cls-2{fill:#ffc000;}</style></defs><title>5</title><g id="Ebene_2" data-name="Ebene 2"><g id="Ebene_1-2" data-name="Ebene 1"><path class="cls-1" d="M27.57,155.71C7.54,155.71,0,142.22,0,123.18c0-7.94.79-12.5,1-16.47l20,1.19a105.14,105.14,0,0,0-.79,13.69c0,10.51,2,13.88,7.14,13.88,4.56,0,7.33-1.39,7.33-14.28V88.47c0-15.67-2.38-17.05-6.74-17.05-5.16,0-8.13,1.78-10.32,9.32H.2L4.36,0a192,192,0,0,0,24.4,1.39A210.24,210.24,0,0,0,55.74,0c0,17.46-4.17,21.22-21.62,21.22-3.57,0-6.74-.4-9.53-.59L22.21,53a33.72,33.72,0,0,1,12.1-1.79c18.64,0,25.39,16.86,25.39,49C59.71,142.42,52.57,155.71,27.57,155.71Z"/><path class="cls-2" d="M33.57,161.8C13.54,161.8,6,148.31,6,129.27c0-7.94.79-12.5,1-16.47L27,114a105.14,105.14,0,0,0-.79,13.69c0,10.51,2,13.88,7.14,13.88,4.56,0,7.33-1.39,7.33-14.28V94.56c0-15.67-2.38-17.05-6.74-17.05-5.16,0-8.13,1.78-10.32,9.32H6.2L10.36,6.09a192,192,0,0,0,24.4,1.39,210.24,210.24,0,0,0,27-1.39c0,17.46-4.17,21.22-21.62,21.22-3.57,0-6.74-.4-9.53-.59L28.21,59.05a33.72,33.72,0,0,1,12.1-1.79c18.64,0,25.39,16.86,25.39,49C65.7,148.51,58.56,161.8,33.57,161.8Z"/></g></g></svg>