<svg xmlns="http://www.w3.org/2000/svg" viewBox="0 0 80.47 192.3"><defs><style>.cls-1{fill:#c82e29;}.cls-2{fill:#ffc000;}</style></defs><title>6</title><g id="Ebene_2" data-name="Ebene 2"><g id="Ebene_1-2" data-name="Ebene 1"><path class="cls-1" d="M74.47,151.06c0,22.31-14.8,35.24-37.59,35.24C13.86,186.3,0,175,0,149.89V38.53C0,12.69,12.45,0,36.65,0,60.37,0,70.71,13.63,70.71,33.36a94.23,94.23,0,0,1-1.64,18.09L45.34,49.57a86.05,86.05,0,0,0,1.18-13.39c0-8.69-3.05-12.69-8.93-12.69-6.34,0-8.23,3.29-8.23,8.93v47a42.59,42.59,0,0,1,14.57-2.59c16.68,0,30.54,12.93,30.54,34.3ZM45.11,111.82c0-8.22-2.58-10.33-8-10.33-4.93,0-7.75,2.82-7.75,9.87v41.58c0,6.11,3.06,9.16,7.75,9.16,4.46,0,8-3.05,8-8.69Z"/><path class="cls-2" d="M80.47,157.06c0,22.31-14.8,35.24-37.59,35.24C19.86,192.3,6,181,6,155.89V44.53C6,18.69,18.45,6,42.65,6,66.37,6,76.71,19.63,76.71,39.36a94.23,94.23,0,0,1-1.64,18.09L51.34,55.57a86.05,86.05,0,0,0,1.18-13.39c0-8.69-3.05-12.69-8.93-12.69-6.34,0-8.23,3.29-8.23,8.93v47a42.59,42.59,0,0,1,14.57-2.59c16.68,0,30.54,12.93,30.54,34.3ZM51.11,117.82c0-8.22-2.58-10.33-8-10.33-4.93,0-7.75,2.82-7.75,9.87v41.58c0,6.11,3.06,9.16,7.75,9.16,4.46,0,8-3.05,8-8.69Z"/></g></g></svg>