<svg xmlns="http://www.w3.org/2000/svg" viewBox="0 0 73.4 162.31"><defs><style>.cls-1{fill:#c82e29;}.cls-2{fill:#ffc000;}</style></defs><title>7</title><g id="Ebene_2" data-name="Ebene 2"><g id="Ebene_1-2" data-name="Ebene 1"><path class="cls-1" d="M67.4,17.46c-13.6,31.06-20.71,48.92-26,86.28C39,120.79,38,132.76,38,140.48a135.38,135.38,0,0,0,.61,15.83H10.76a344.41,344.41,0,0,1,4.06-48.11c5.08-30.45,13.8-56.43,27.41-86.88H0V0H67.4Z"/><path class="cls-2" d="M73.4,23.46c-13.6,31.06-20.71,48.92-26,86.28C45,126.79,44,138.76,44,146.48a135.38,135.38,0,0,0,.61,15.83H16.76a344.41,344.41,0,0,1,4.06-48.11c5.08-30.45,13.8-56.43,27.41-86.88H6V6H73.4Z"/></g></g></svg>