<svg xmlns="http://www.w3.org/2000/svg" viewBox="0 0 70.82 168.15"><defs><style>.cls-1{fill:#c82e29;}.cls-2{fill:#ffc000;}</style></defs><title>8</title><g id="Ebene_2" data-name="Ebene 2"><g id="Ebene_1-2" data-name="Ebene 1"><path class="cls-1" d="M64.82,129.23c0,22.9-13.7,32.92-31.49,32.92C14.11,162.15,0,152.74,0,129.84V104.28c0-15.95,5.32-23.1,13.09-26.79C4.91,73.2.61,65.63.61,49.48v-17C.61,8.79,15.13,0,33.13,0,50.91,0,64.21,9.41,64.21,32.51V49.28C64.21,65,61.14,73,52.55,77.49c7.77,3.68,12.27,10,12.27,27.6ZM39.46,96.72c0-6.34-2.86-8.79-7-8.79-4.3,0-7,2.86-7,9V132.5c0,5.93,2.66,8.59,7.16,8.59s6.75-2.66,6.75-8.59Zm-.82-67.27c0-5.72-1.84-8.38-6.13-8.38-4.5,0-6.34,2.66-6.34,8.59V58.48c0,5.72,1.84,9,6.34,9,3.88,0,6.13-2.86,6.13-8.79Z"/><path class="cls-2" d="M70.82,135.23c0,22.9-13.7,32.92-31.49,32.92C20.11,168.15,6,158.74,6,135.84V110.28c0-15.95,5.32-23.1,13.09-26.79-8.18-4.29-12.47-11.86-12.47-28v-17C6.61,14.79,21.13,6,39.13,6c17.79,0,31.08,9.41,31.08,32.51V55.28C70.21,71,67.14,79,58.55,83.49c7.77,3.68,12.27,10,12.27,27.6ZM45.46,102.72c0-6.34-2.86-8.79-7-8.79-4.3,0-7,2.86-7,9V138.5c0,5.93,2.66,8.59,7.16,8.59s6.75-2.66,6.75-8.59Zm-.82-67.27c0-5.72-1.84-8.38-6.13-8.38-4.5,0-6.34,2.66-6.34,8.59V64.48c0,5.72,1.84,9,6.34,9,3.88,0,6.13-2.86,6.13-8.79Z"/></g></g></svg>