<svg xmlns="http://www.w3.org/2000/svg" viewBox="0 0 72.59 172.59"><defs><style>.cls-1{fill:#c82e29;}.cls-2{fill:#ffc000;}</style></defs><title>9</title><g id="Ebene_2" data-name="Ebene 2"><g id="Ebene_1-2" data-name="Ebene 1"><path class="cls-1" d="M66.59,131.51c0,24.58-12,35.08-31.72,35.08-21.85,0-31.09-13.65-31.09-30a70.19,70.19,0,0,1,1.68-17.23l20.8,1.89a76.84,76.84,0,0,0-1,12.82c0,7.35,1.89,10.92,8.4,10.92,4.62,0,6.73-3.15,6.73-10.5V95.16c-4.21,2.1-8.82,2.52-14.71,2.52C12.39,97.69,0,86.34,0,64.91V33.61C0,9.87,13,0,33.82,0,54,0,66.59,9.66,66.59,33.61ZM40.33,30.88c0-6.72-2.31-9.24-6.73-9.24-4.62,0-7.35,2.73-7.35,8.82V65.54c0,7.14,2.31,10.08,7.35,10.08,4.41,0,6.73-2.94,6.73-10.08Z"/><path class="cls-2" d="M72.59,137.51c0,24.58-12,35.08-31.72,35.08-21.85,0-31.09-13.65-31.09-30a70.19,70.19,0,0,1,1.68-17.23l20.8,1.89a76.84,76.84,0,0,0-1,12.82c0,7.35,1.89,10.92,8.4,10.92,4.62,0,6.73-3.15,6.73-10.5V101.16c-4.21,2.1-8.82,2.52-14.71,2.52C18.39,103.69,6,92.34,6,70.91V39.61C6,15.87,19,6,39.82,6,60,6,72.59,15.66,72.59,39.61ZM46.33,36.88c0-6.72-2.31-9.24-6.73-9.24-4.62,0-7.35,2.73-7.35,8.82V71.54c0,7.14,2.31,10.08,7.35,10.08,4.41,0,6.73-2.94,6.73-10.08Z"/></g></g></svg>