<svg xmlns="http://www.w3.org/2000/svg" viewBox="0 0 2277.74 2035.23"><defs><style>.cls-1{fill:#1d1d1b;}</style></defs><title>Element 2</title><g id="Ebene_2" data-name="Ebene 2"><g id="Isolation_Mode" data-name="Isolation Mode"><path class="cls-1" d="M1884,1972.16H855.47A99.42,99.42,0,0,1,756,1872.74V758a99.42,99.42,0,0,1,28.13-69.3C914.66,554.49,1262.7,195.14,1305.64,145c29.71-34.66,68.27-67.65,108.58-92.91C1469.43,17.54,1523.35,0,1574.49,0c44.67,0,86.43,13.88,120.76,40.14,76.26,58.31,93.19,128.18,94,176.51.83,52.1-16.62,107.14-51.89,163.59-25.9,41.41-114.73,183.25-185.68,296.51h491.57c51.1-3.27,109.62,18.81,154.14,57.68,51.84,45.25,80.38,108.63,80.38,178.45,0,60.06-20.75,115.5-59,159.13q6,9.87,11.13,20.31c17.63,36,26.56,76.09,26.56,119.09,0,47.58-12.27,90.36-36.48,127.14a217.56,217.56,0,0,1-28.57,34.9q.94,1.91,1.84,3.84C2209.68,1412.36,2218,1452,2218,1495c0,75.93-30.79,139.7-87.23,181.76a239,239,0,0,1,11.29,73.62c0,43.26-11.25,82.34-33.43,116.15-18.85,28.73-44.81,52.28-77.15,70C1974.92,1967.53,1914.83,1972.16,1884,1972.16Zm112.31-528.49.43.1Z"/><path class="cls-1" d="M362.22,2035.23h-.54c-78-.43-155.13-1.89-155.9-1.91a99.43,99.43,0,0,1-37.28-8,376.38,376.38,0,0,1-68-39.31C31.2,1935.58,10.33,1880.81,5,1843.75c-2.17-15.22-6.7-46.87-4.4-560C1.76,1033.51,4,787.84,4,785.39a99.42,99.42,0,0,1,10.5-43.55,289.35,289.35,0,0,1,33.86-51.21c44-53.17,90.75-68.08,122.22-71.22,11.67-1.17,34.84-2.5,111.07-2.5,23.41,0,50.5.13,80.54.38,30-.25,57.13-.38,80.54-.38,76.22,0,99.39,1.34,111.06,2.5,31.47,3.14,78.22,18.05,122.23,71.22a289.35,289.35,0,0,1,33.86,51.21,99.42,99.42,0,0,1,10.5,43.55c0,2.45,2.28,248.12,3.4,498.37,2.3,513.12-2.22,544.77-4.4,560-5.3,37.07-26.16,91.83-95.45,142.24a376.38,376.38,0,0,1-68,39.31,99.43,99.43,0,0,1-37.28,8c-.77,0-77.85,1.48-155.9,1.91Z"/></g></g></svg>