<svg id="Ebene_1" data-name="Ebene 1" xmlns="http://www.w3.org/2000/svg" viewBox="0 0 162.5 70.91"><defs><style>.cls-1{fill:#da131d;}.cls-2{fill:#fec710;}</style></defs><title>login</title><path class="cls-1" d="M225,314.08H202.21v-65h11.22v55.77H225Z" transform="translate(-202.21 -248.01)"/><path class="cls-1" d="M261.71,300.58c0,10.63-6.33,14.34-13.84,14.34-7.68,0-14.17-4-14.17-14.34V262.35c0-10.54,6.58-14.34,14.17-14.34s13.84,3.72,13.84,14.34Zm-11.14-40.41c0-2.53-1.43-3.54-2.78-3.54-1.69,0-2.87,1-2.87,3.54v42.52c0,2.45,1.1,3.54,3,3.54,1.69,0,2.7-1,2.7-3.46Z" transform="translate(-202.21 -248.01)"/><path class="cls-1" d="M299.87,313.9h-3l-1.69-2.78c-2.36,2.7-5.31,3.8-10.54,3.8-7.59,0-12.49-4.31-12.49-13V262.44c0-9.62,5.4-14.43,13.75-14.43,7.68,0,12.49,3,12.49,14.52a56.63,56.63,0,0,1-.59,8.26l-8.52-.67a40.93,40.93,0,0,0,.5-6.41c0-6.16-1.35-7.09-3.2-7.09-2.53,0-3.21,1.35-3.21,4.31v41.84c0,2.45.93,3.71,3.12,3.71,1.77,0,2.7-1.26,2.7-3.71V282.86h10.72Z" transform="translate(-202.21 -248.01)"/><path class="cls-1" d="M322.16,314.08H310.94v-65h11.22Z" transform="translate(-202.21 -248.01)"/><path class="cls-1" d="M359.72,314.08h-8.27l-8.35-33.32v33.32h-9.28v-65h9.45l7.17,28.77V249.11h9.28Z" transform="translate(-202.21 -248.01)"/><path class="cls-2" d="M230,318.08H207.21v-65h11.22v55.77H230Z" transform="translate(-202.21 -248.01)"/><path class="cls-2" d="M266.71,304.58c0,10.63-6.33,14.34-13.84,14.34-7.68,0-14.17-4-14.17-14.34V266.35c0-10.54,6.58-14.34,14.17-14.34s13.84,3.72,13.84,14.34Zm-11.14-40.41c0-2.53-1.43-3.54-2.78-3.54-1.69,0-2.87,1-2.87,3.54v42.52c0,2.45,1.1,3.54,3,3.54,1.69,0,2.7-1,2.7-3.46Z" transform="translate(-202.21 -248.01)"/><path class="cls-2" d="M304.87,317.9h-3l-1.69-2.78c-2.36,2.7-5.31,3.8-10.54,3.8-7.59,0-12.49-4.31-12.49-13V266.44c0-9.62,5.4-14.43,13.75-14.43,7.68,0,12.49,3,12.49,14.52a56.63,56.63,0,0,1-.59,8.26l-8.52-.67a40.93,40.93,0,0,0,.5-6.41c0-6.16-1.35-7.09-3.2-7.09-2.53,0-3.21,1.35-3.21,4.31v41.84c0,2.45.93,3.71,3.12,3.71,1.77,0,2.7-1.26,2.7-3.71V286.86h10.72Z" transform="translate(-202.21 -248.01)"/><path class="cls-2" d="M327.16,318.08H315.94v-65h11.22Z" transform="translate(-202.21 -248.01)"/><path class="cls-2" d="M364.72,318.08h-8.27l-8.35-33.32v33.32h-9.28v-65h9.45l7.17,28.77V253.11h9.28Z" transform="translate(-202.21 -248.01)"/></svg>