<svg id="Ebene_1" data-name="Ebene 1" xmlns="http://www.w3.org/2000/svg" viewBox="0 0 690.89 326.04"><defs><style>.cls-1{fill:#da0e1b;}.cls-2{fill:#fec708;}.cls-3{fill:#333;}.cls-4{fill:#5c5c5c;}.cls-5{fill:#fff;stroke:#000;stroke-miterlimit:10;stroke-width:3px;}</style></defs><title>logo</title><path class="cls-1" d="M288.18,371.94a24.53,24.53,0,0,1-1.75-8.06c-.35-11.75-.35-16.13-.53-24.71-.35-20.16-3.16-22.26-6-22.26h-3.33v55H253.3V237h29.09c18.76,0,28.75,10.69,28.75,35.4,0,18.76-1.58,28.75-13.32,34.53C308,313.4,309,329.17,309,337.76v10.17c0,12.62.7,17.53,2.28,24Zm-8.41-116.38h-3.16v42.59h3c5.26,0,8.76-4.21,8.76-22.26C288.35,258.36,284.85,255.56,279.76,255.56Z" transform="translate(-54.56 -236.98)"/><path class="cls-1" d="M389.3,371.59H365.81l-1.75-18.76H350.22l-1.75,18.76H329L346.36,237h25.06Zm-27.52-37.51-4.21-53.63-5.43,53.63Z" transform="translate(-54.56 -236.98)"/><path class="cls-1" d="M454.5,255.56h-18.4V371.94H412.78V255.56H394.55V237H454.5Z" transform="translate(-54.56 -236.98)"/><path class="cls-1" d="M523,371.59H475.7V237h47.15v18.58H499v37.33h19.81v18.93H499V353h24Z" transform="translate(-54.56 -236.98)"/><path class="cls-1" d="M652.71,371.94H630.28v-63.1l-10,63.1H605.92l-10.52-63.1v63.1H576.12V237h27l10.69,79.4L626.42,237h26.29Z" transform="translate(-54.56 -236.98)"/><path class="cls-1" d="M735.78,237l-19.63,82.55v52.41H692.84V319.36L673.21,237h24.54l7.71,51,8.41-51Z" transform="translate(-54.56 -236.98)"/><path class="cls-1" d="M308.48,414.64H280.12v48h23.57v21.9H280.12v68.61H252.38V392.54h56.1Z" transform="translate(-54.56 -236.98)"/><path class="cls-1" d="M375.41,553.11a29.19,29.19,0,0,1-2.09-9.59c-.42-14-.42-19.19-.63-29.41-.42-24-3.75-26.48-7.09-26.48h-4v65.48H333.91V392.54h34.61c22.31,0,34.2,12.72,34.2,42.12,0,22.31-1.88,34.2-15.85,41.08,12.09,7.72,13.35,26.48,13.35,36.7v12.09c0,15,.83,20.85,2.71,28.57Zm-10-138.47h-3.75v50.67h3.55c6.26,0,10.43-5,10.43-26.48C375.62,418,371.45,414.64,365.4,414.64Z" transform="translate(-54.56 -236.98)"/><path class="cls-1" d="M456.31,552.69H428.58V392.54h27.73Z" transform="translate(-54.56 -236.98)"/><path class="cls-1" d="M554.53,519.12c0,25.44-12.93,33.57-34.83,33.57H485.08V392.54h34c23.15,0,35.45,8.76,35.45,36.29ZM526.79,425.9c0-9.17-2.71-11.26-8.55-11.26h-5.42V530.59h5c6.67,0,9-2.71,9-10.22Z" transform="translate(-54.56 -236.98)"/><path class="cls-1" d="M648.56,552.69h-7.51l-4.17-6.88c-5.84,6.67-13.14,9.38-26.07,9.38-18.77,0-30.86-10.64-30.86-32.11V425.49c0-23.77,13.35-35.66,34-35.66,19,0,30.86,7.51,30.86,35.87a139.94,139.94,0,0,1-1.46,20.44l-21.06-1.67a101.74,101.74,0,0,0,1.25-15.85c0-15.22-3.34-17.52-7.92-17.52-6.26,0-7.92,3.34-7.92,10.64V525.17c0,6,2.29,9.18,7.71,9.18,4.38,0,6.67-3.13,6.67-9.18V476h26.48Z" transform="translate(-54.56 -236.98)"/><path class="cls-1" d="M732.18,552.69h-56.3V392.54H732v22.1H703.61v44.42h23.56v22.52H703.61v49h28.57Z" transform="translate(-54.56 -236.98)"/><path class="cls-2" d="M297.84,379.76a24.53,24.53,0,0,1-1.75-8.06c-.35-11.75-.35-16.13-.53-24.71-.35-20.16-3.16-22.26-6-22.26h-3.33v55H263v-135h29.09c18.76,0,28.75,10.69,28.75,35.4,0,18.76-1.58,28.75-13.32,34.53,10.17,6.49,11.22,22.26,11.22,30.85v10.17c0,12.62.7,17.53,2.28,24Zm-8.41-116.38h-3.16V306h3c5.26,0,8.76-4.21,8.76-22.26C298,266.19,294.51,263.38,289.42,263.38Z" transform="translate(-54.56 -236.98)"/><path class="cls-2" d="M399,379.41H375.47l-1.75-18.76H359.88l-1.75,18.76H338.67L356,244.8h25.06ZM371.44,341.9l-4.21-53.63L361.8,341.9Z" transform="translate(-54.56 -236.98)"/><path class="cls-2" d="M464.16,263.38h-18.4V379.76H422.44V263.38H404.21V244.8h59.94Z" transform="translate(-54.56 -236.98)"/><path class="cls-2" d="M532.68,379.41H485.36V244.8h47.15v18.58H508.67v37.33h19.81v18.93H508.67v41.19h24Z" transform="translate(-54.56 -236.98)"/><path class="cls-2" d="M662.37,379.76H639.94v-63.1l-10,63.1H615.58l-10.52-63.1v63.1H585.78v-135h27l10.69,79.4,12.62-79.4h26.29Z" transform="translate(-54.56 -236.98)"/><path class="cls-2" d="M745.44,244.8l-19.63,82.55v52.41H702.5V327.18L682.87,244.8h24.54l7.71,51,8.41-51Z" transform="translate(-54.56 -236.98)"/><path class="cls-2" d="M318.14,422.47H289.78v48h23.57v21.9H289.78v68.61H262V400.36h56.1Z" transform="translate(-54.56 -236.98)"/><path class="cls-2" d="M385.07,560.93a29.19,29.19,0,0,1-2.09-9.59c-.42-14-.42-19.19-.63-29.41-.42-24-3.75-26.48-7.09-26.48h-4v65.48H343.57V400.36h34.61c22.31,0,34.2,12.72,34.2,42.12,0,22.31-1.88,34.2-15.85,41.08,12.09,7.72,13.35,26.48,13.35,36.7v12.09c0,15,.83,20.85,2.71,28.57Zm-10-138.47H371.3v50.67h3.55c6.26,0,10.43-5,10.43-26.48C385.28,425.8,381.11,422.47,375.06,422.47Z" transform="translate(-54.56 -236.98)"/><path class="cls-2" d="M466,560.52H438.24V400.36H466Z" transform="translate(-54.56 -236.98)"/><path class="cls-2" d="M564.19,526.94c0,25.44-12.93,33.57-34.83,33.57H494.74V400.36h34c23.15,0,35.45,8.76,35.45,36.29Zm-27.74-93.22c0-9.17-2.71-11.26-8.55-11.26h-5.42V538.41h5c6.67,0,9-2.71,9-10.22Z" transform="translate(-54.56 -236.98)"/><path class="cls-2" d="M658.22,560.52h-7.51l-4.17-6.88c-5.84,6.67-13.14,9.38-26.07,9.38-18.77,0-30.86-10.64-30.86-32.11V433.31c0-23.77,13.35-35.66,34-35.66,19,0,30.86,7.51,30.86,35.87A139.94,139.94,0,0,1,653,454l-21.06-1.67a101.74,101.74,0,0,0,1.25-15.85c0-15.22-3.34-17.52-7.92-17.52-6.26,0-7.92,3.34-7.92,10.64V533c0,6,2.29,9.18,7.71,9.18,4.38,0,6.67-3.13,6.67-9.18V483.77h26.48Z" transform="translate(-54.56 -236.98)"/><path class="cls-2" d="M741.84,560.52h-56.3V400.36h56.1v22.1H713.27v44.42h23.56v22.52H713.27v49h28.57Z" transform="translate(-54.56 -236.98)"/><rect class="cls-3" x="19.08" y="200.78" width="18" height="7.72"/><path class="cls-1" d="M216.21,533.36a20.06,20.06,0,0,1-20,20H74.56a20.06,20.06,0,0,1-20-20v-276a20.06,20.06,0,0,1,20-20H196.21a20.06,20.06,0,0,1,20,20v276Z" transform="translate(-54.56 -236.98)"/><rect class="cls-4" x="21.64" y="167.33" width="18" height="7.72"/><path class="cls-2" d="M224.82,541a20.06,20.06,0,0,1-20,20H83.17a20.06,20.06,0,0,1-20-20v-276a20.06,20.06,0,0,1,20-20H204.82a20.06,20.06,0,0,1,20,20V541Z" transform="translate(-54.56 -236.98)"/><rect class="cls-1" x="8.5" y="183.7" width="161.78" height="4.41"/><rect class="cls-1" x="19.82" y="165.51" width="18" height="7.72"/><path class="cls-5" d="M96.64,406.72" transform="translate(-54.56 -236.98)"/><rect class="cls-1" x="19.82" y="198.57" width="18" height="7.72"/></svg>