<svg xmlns="http://www.w3.org/2000/svg" viewBox="0 0 493.06 326.04"><defs><style>.cls-1{fill:#da0e1b;}.cls-2{fill:#fec708;}</style></defs><title>Logo_klein</title><g id="Ebene_2" data-name="Ebene 2"><g id="Ebene_1-2" data-name="Ebene 1"><path class="cls-1" d="M35.79,135A24.53,24.53,0,0,1,34,126.9c-.35-11.75-.35-16.13-.53-24.71-.35-20.16-3.16-22.26-6-22.26H24.23v55H.92V0H30C48.76,0,58.76,10.69,58.76,35.4c0,18.76-1.58,28.75-13.32,34.53,10.17,6.49,11.22,22.26,11.22,30.85v10.17c0,12.62.7,17.53,2.28,24ZM27.38,18.58H24.23V61.17h3C32.46,61.17,36,57,36,38.91,36,21.38,32.46,18.58,27.38,18.58Z"/><path class="cls-1" d="M136.92,134.61H113.43l-1.75-18.76H97.83l-1.75,18.76H76.63L94,0H119ZM109.4,97.1,105.2,43.47,99.76,97.1Z"/><path class="cls-1" d="M202.12,18.58h-18.4V135H160.4V18.58H142.17V0h59.94Z"/><path class="cls-1" d="M270.64,134.61H223.32V0h47.15V18.58H246.63V55.91h19.81V74.84H246.63V116h24Z"/><path class="cls-1" d="M400.33,135H377.9V71.86l-10,63.1H353.53L343,71.86V135H323.74V0h27l10.69,79.4L374,0h26.29Z"/><path class="cls-1" d="M483.4,0,463.77,82.55V135H440.46V82.38L420.83,0h24.54l7.71,51,8.41-51Z"/><path class="cls-1" d="M56.1,177.66H27.73v48H51.3v21.9H27.73v68.61H0V155.56H56.1Z"/><path class="cls-1" d="M123,316.13a29.19,29.19,0,0,1-2.09-9.59c-.42-14-.42-19.19-.63-29.41-.42-24-3.75-26.48-7.09-26.48h-4v65.48H81.53V155.56h34.61c22.31,0,34.2,12.72,34.2,42.12,0,22.31-1.88,34.2-15.85,41.08,12.09,7.72,13.35,26.48,13.35,36.7v12.09c0,15,.83,20.85,2.71,28.57ZM113,177.66h-3.75v50.67h3.55c6.26,0,10.43-5,10.43-26.48C123.23,181,119.06,177.66,113,177.66Z"/><path class="cls-1" d="M203.93,315.71H176.19V155.56h27.73Z"/><path class="cls-1" d="M302.14,282.14c0,25.44-12.93,33.57-34.83,33.57H232.7V155.56h34c23.15,0,35.45,8.76,35.45,36.29Zm-27.74-93.22c0-9.17-2.71-11.26-8.55-11.26h-5.42V293.61h5c6.67,0,9-2.71,9-10.22Z"/><path class="cls-1" d="M396.18,315.71h-7.51l-4.17-6.88c-5.84,6.67-13.14,9.38-26.07,9.38-18.77,0-30.86-10.64-30.86-32.11V188.51c0-23.77,13.35-35.66,34-35.66,19,0,30.86,7.51,30.86,35.87A139.94,139.94,0,0,1,391,209.15l-21.06-1.67a101.74,101.74,0,0,0,1.25-15.85c0-15.22-3.34-17.52-7.92-17.52-6.26,0-7.92,3.34-7.92,10.64V288.19c0,6,2.29,9.18,7.71,9.18,4.38,0,6.67-3.13,6.67-9.18V239h26.48Z"/><path class="cls-1" d="M479.8,315.71h-56.3V155.56h56.1v22.1H451.23v44.42h23.56V244.6H451.23v49H479.8Z"/><path class="cls-2" d="M45.45,142.78a24.53,24.53,0,0,1-1.75-8.06c-.35-11.75-.35-16.13-.53-24.71-.35-20.16-3.16-22.26-6-22.26H33.89v55H10.58V7.82H39.67c18.76,0,28.75,10.69,28.75,35.4C68.42,62,66.84,72,55.09,77.76,65.26,84.24,66.31,100,66.31,108.6v10.17c0,12.62.7,17.53,2.28,24ZM37,26.4H33.89V69h3c5.26,0,8.76-4.21,8.76-22.26C45.63,29.21,42.12,26.4,37,26.4Z"/><path class="cls-2" d="M146.58,142.43H123.09l-1.75-18.76H107.49l-1.75,18.76H86.29L103.64,7.82H128.7Zm-27.52-37.51-4.21-53.63-5.43,53.63Z"/><path class="cls-2" d="M211.78,26.4h-18.4V142.78H170.06V26.4H151.83V7.82h59.94Z"/><path class="cls-2" d="M280.3,142.43H233V7.82h47.15V26.4H256.29V63.73H276.1V82.66H256.29v41.19h24Z"/><path class="cls-2" d="M410,142.78H387.56V79.68l-10,63.1H363.19l-10.52-63.1v63.1H333.4V7.82h27l10.69,79.4L383.7,7.82H410Z"/><path class="cls-2" d="M493.06,7.82,473.43,90.37v52.41H450.12V90.2L430.49,7.82H455l7.71,51,8.41-51Z"/><path class="cls-2" d="M65.76,185.48H37.39v48H61v21.9H37.39V324H9.66V163.38h56.1Z"/><path class="cls-2" d="M132.69,324a29.19,29.19,0,0,1-2.09-9.59c-.42-14-.42-19.19-.63-29.41-.42-24-3.75-26.48-7.09-26.48h-4V324H91.19V163.38H125.8c22.31,0,34.2,12.72,34.2,42.12,0,22.31-1.88,34.2-15.85,41.08,12.09,7.72,13.35,26.48,13.35,36.7v12.09c0,15,.83,20.85,2.71,28.57Zm-10-138.47h-3.75v50.67h3.55c6.26,0,10.43-5,10.43-26.48C132.89,188.82,128.72,185.48,122.68,185.48Z"/><path class="cls-2" d="M213.59,323.53H185.85V163.38h27.73Z"/><path class="cls-2" d="M311.8,290c0,25.44-12.93,33.57-34.83,33.57H242.36V163.38h34c23.15,0,35.45,8.76,35.45,36.29Zm-27.74-93.22c0-9.17-2.71-11.26-8.55-11.26H270.1V301.43h5c6.67,0,9-2.71,9-10.22Z"/><path class="cls-2" d="M405.84,323.53h-7.51l-4.17-6.88C388.33,323.33,381,326,368.1,326c-18.77,0-30.86-10.64-30.86-32.11V196.33c0-23.77,13.35-35.66,34-35.66,19,0,30.86,7.51,30.86,35.87A139.94,139.94,0,0,1,400.63,217l-21.06-1.67a101.74,101.74,0,0,0,1.25-15.85c0-15.22-3.34-17.52-7.92-17.52-6.26,0-7.92,3.34-7.92,10.64V296c0,6,2.29,9.18,7.71,9.18,4.38,0,6.67-3.13,6.67-9.18V246.79h26.48Z"/><path class="cls-2" d="M489.46,323.53h-56.3V163.38h56.1v22.1H460.89V229.9h23.56v22.52H460.89v49h28.57Z"/></g></g></svg>