<svg id="Ebene_1" data-name="Ebene 1" xmlns="http://www.w3.org/2000/svg" xmlns:xlink="http://www.w3.org/1999/xlink" viewBox="0 0 54.26 33.28"><defs><style>.cls-1{fill:#fec710;fill-rule:evenodd;}</style><symbol id="Pfeil_3" data-name="Pfeil 3" viewBox="0 0 54.69 32.57"><path class="cls-1" d="M53.08,8.92,30.76,31.08a4.7,4.7,0,0,1-6.86,0L1.82,8.92c-2.07-2-2.56-4.63-.5-6.61l.83-.83C4-.26,6-.59,7.61,1.15,13,6.6,18.44,12.14,23.9,17.6a5,5,0,0,0,6.86,0c5.54-5.46,11-11,16.54-16.46,1.49-1.74,3.64-1.4,5.29.33l.83.83c2,2,1.49,4.63-.33,6.61Z"/></symbol></defs><title>pfeil_runter</title><use id="Pfeil_3-3" data-name="Pfeil 3" width="54.69" height="32.57" transform="translate(0) scale(0.99 1.02)" xlink:href="#Pfeil_3"/></svg>