<svg xmlns="http://www.w3.org/2000/svg" viewBox="0 0 535 143.49"><defs><style>.cls-1{fill:#da0e1b;}.cls-2{fill:#ffc000;}</style></defs><title>rate_me</title><g id="Ebene_2" data-name="Ebene 2"><g id="Ebene_1-2" data-name="Ebene 1"><path class="cls-1" d="M35.79,138.49a25.17,25.17,0,0,1-1.8-8.27c-.36-12.05-.36-16.55-.54-25.36C33.09,84.17,30.22,82,27.34,82H23.92v56.48H0V0H29.86c19.25,0,29.5,11,29.5,36.33,0,19.25-1.62,29.5-13.67,35.43C56.12,78.42,57.2,94.61,57.2,103.42v10.43c0,12.95.72,18,2.34,24.64ZM27.16,19.07H23.92V62.77H27c5.4,0,9-4.32,9-22.84C36,21.94,32.37,19.07,27.16,19.07Z"/><path class="cls-1" d="M139.56,138.13h-24.1l-1.8-19.25H99.45l-1.8,19.25h-20L95.5,0h25.72ZM111.33,99.64l-4.32-55-5.58,55Z"/><path class="cls-1" d="M206.47,19.07H187.58V138.49H163.66V19.07H145V0h61.51Z"/><path class="cls-1" d="M276.79,138.13H228.22V0h48.38V19.07H252.14V57.38h20.32V76.8H252.14v42.27h24.64Z"/><path class="cls-1" d="M409.87,138.49h-23V73.74L376.6,138.49H361.85L351.06,73.74v64.75H331.27V0H359l11,81.48L382.89,0h27Z"/><path class="cls-1" d="M483.25,138.13H434.69V0h48.38V19.07H458.61V57.38h20.32V76.8H458.61v42.27h24.64Z"/><path class="cls-1" d="M530,138.13H507.52V116H530Zm-.36-99.46L523.35,95h-9.53l-5.93-56.66V0h21.76Z"/><path class="cls-2" d="M40.79,143.49a25.17,25.17,0,0,1-1.8-8.27c-.36-12.05-.36-16.55-.54-25.36C38.09,89.17,35.21,87,32.33,87H28.92v56.48H5V5H34.85c19.25,0,29.5,11,29.5,36.33,0,19.25-1.62,29.5-13.67,35.43,10.43,6.65,11.51,22.84,11.51,31.66v10.43c0,12.95.72,18,2.34,24.64ZM32.16,24.06H28.92V67.77H32c5.4,0,9-4.32,9-22.84C41,26.94,37.37,24.06,32.16,24.06Z"/><path class="cls-2" d="M144.56,143.13h-24.1l-1.8-19.25H104.45l-1.8,19.25h-20L100.49,5h25.72Zm-28.24-38.49L112,49.6l-5.58,55Z"/><path class="cls-2" d="M211.46,24.06H192.58V143.49H168.66V24.06H150V5h61.51Z"/><path class="cls-2" d="M281.78,143.13H233.22V5H281.6V24.06H257.14V62.37h20.32V81.8H257.14v42.27h24.64Z"/><path class="cls-2" d="M414.87,143.49h-23V78.74l-10.25,64.75H366.85L356.05,78.74v64.75H336.27V5H364l11,81.48L387.89,5h27Z"/><path class="cls-2" d="M488.24,143.13H439.68V5h48.38V24.06H463.6V62.37h20.32V81.8H463.6v42.27h24.64Z"/><path class="cls-2" d="M535,143.13H512.52V121H535Zm-.36-99.46-6.3,56.3h-9.53l-5.93-56.66V5h21.76Z"/></g></g></svg>