<svg id="Ebene_1" data-name="Ebene 1" xmlns="http://www.w3.org/2000/svg" viewBox="0 0 468.75 76.2"><defs><style>.cls-1{fill:#da0e1b;}.cls-2{fill:#ffc000;}</style></defs><title>rate_a_fridge</title><path class="cls-1" d="M170.47,396.75a13,13,0,0,1-.93-4.27c-.19-6.22-.19-8.54-.28-13.09-.19-10.68-1.67-11.79-3.16-11.79h-1.76v29.15H152V325.27h15.41c9.93,0,15.23,5.66,15.23,18.75,0,9.93-.84,15.23-7.06,18.29,5.38,3.43,5.94,11.79,5.94,16.34V384c0,6.68.37,9.28,1.21,12.72ZM166,335.11h-1.67v22.56h1.58c2.79,0,4.64-2.23,4.64-11.79C170.57,336.59,168.71,335.11,166,335.11Z" transform="translate(-152 -324.06)"/><path class="cls-1" d="M224,396.57H211.6l-.93-9.93h-7.33l-.93,9.93H192.1l9.19-71.3h13.28ZM209.46,376.7l-2.23-28.41-2.88,28.41Z" transform="translate(-152 -324.06)"/><path class="cls-1" d="M258.57,335.11h-9.75v61.64H236.47V335.11h-9.66v-9.84h31.75Z" transform="translate(-152 -324.06)"/><path class="cls-1" d="M294.86,396.57H269.8v-71.3h25v9.84H282.14v19.77h10.49v10H282.14v21.82h12.72Z" transform="translate(-152 -324.06)"/><path class="cls-1" d="M352.88,396.57H340.44l-.93-9.93h-7.33l-.93,9.93h-10.3l9.19-71.3h13.28ZM338.3,376.7l-2.23-28.41L333.2,376.7Z" transform="translate(-152 -324.06)"/><path class="cls-1" d="M405.42,335.11H392.79v21.35h10.49v9.75H392.79v30.54H380.45V325.27h25Z" transform="translate(-152 -324.06)"/><path class="cls-1" d="M435.21,396.75a13,13,0,0,1-.93-4.27c-.19-6.22-.19-8.54-.28-13.09-.19-10.68-1.67-11.79-3.16-11.79h-1.76v29.15H416.74V325.27h15.41c9.93,0,15.22,5.66,15.22,18.75,0,9.93-.84,15.23-7.06,18.29,5.38,3.43,5.94,11.79,5.94,16.34V384c0,6.68.37,9.28,1.21,12.72Zm-4.46-61.64h-1.67v22.56h1.58c2.79,0,4.64-2.23,4.64-11.79C435.31,336.59,433.45,335.11,430.76,335.11Z" transform="translate(-152 -324.06)"/><path class="cls-1" d="M471.23,396.75H458.88V325.27h12.35Z" transform="translate(-152 -324.06)"/><path class="cls-1" d="M515,381.62c0,11.33-5.76,14.95-15.5,14.95H484v-71.3h15.13c10.3,0,15.78,3.9,15.78,16.15Zm-12.35-41.5c0-4.08-1.21-5-3.81-5h-2.41v51.62h2.23c3,0,4-1.21,4-4.55Z" transform="translate(-152 -324.06)"/><path class="cls-1" d="M556.82,396.57h-3.34l-1.86-3.06c-2.6,3-5.85,4.18-11.6,4.18-8.36,0-13.74-4.74-13.74-14.3V339.94c0-10.58,5.94-15.88,15.13-15.88,8.45,0,13.74,3.34,13.74,16a62.24,62.24,0,0,1-.65,9.1l-9.38-.74a45.19,45.19,0,0,0,.56-7.06c0-6.78-1.49-7.8-3.53-7.8-2.79,0-3.53,1.49-3.53,4.74v46c0,2.69,1,4.08,3.43,4.08,1.95,0,3-1.39,3-4.08V362.4h11.79Z" transform="translate(-152 -324.06)"/><path class="cls-1" d="M594,396.57H569v-71.3h25v9.84H581.33v19.77h10.49v10H581.33v21.82H594Z" transform="translate(-152 -324.06)"/><path class="cls-1" d="M618.18,396.57h-11.6V385.15h11.6ZM618,345.23l-3.25,29.06h-4.92L606.76,345V325.27H618Z" transform="translate(-152 -324.06)"/><path class="cls-2" d="M173.05,399.33a13,13,0,0,1-.93-4.27c-.19-6.22-.19-8.54-.28-13.09-.19-10.68-1.67-11.79-3.16-11.79h-1.76v29.15H154.58V327.85H170c9.93,0,15.23,5.66,15.23,18.75,0,9.93-.84,15.23-7.06,18.29,5.38,3.43,5.94,11.79,5.94,16.34v5.38c0,6.68.37,9.28,1.21,12.72Zm-4.46-61.64h-1.67v22.56h1.58c2.79,0,4.64-2.23,4.64-11.79C173.15,339.17,171.29,337.69,168.6,337.69Z" transform="translate(-152 -324.06)"/><path class="cls-2" d="M226.61,399.14H214.17l-.93-9.93h-7.33l-.93,9.93h-10.3l9.19-71.3h13.28ZM212,379.28l-2.23-28.41-2.88,28.41Z" transform="translate(-152 -324.06)"/><path class="cls-2" d="M261.15,337.69H251.4v61.64H239.05V337.69H229.4v-9.84h31.75Z" transform="translate(-152 -324.06)"/><path class="cls-2" d="M297.44,399.14H272.38v-71.3h25v9.84H284.72v19.77h10.49v10H284.72V389.3h12.72Z" transform="translate(-152 -324.06)"/><path class="cls-2" d="M355.46,399.14H343l-.93-9.93h-7.33l-.93,9.93h-10.3l9.19-71.3H346Zm-14.58-19.87-2.23-28.41-2.88,28.41Z" transform="translate(-152 -324.06)"/><path class="cls-2" d="M408,337.69H395.37V359h10.49v9.75H395.37v30.54H383V327.85h25Z" transform="translate(-152 -324.06)"/><path class="cls-2" d="M437.79,399.33a13,13,0,0,1-.93-4.27c-.19-6.22-.19-8.54-.28-13.09-.19-10.68-1.67-11.79-3.16-11.79h-1.76v29.15H419.32V327.85h15.41c9.93,0,15.22,5.66,15.22,18.75,0,9.93-.84,15.23-7.06,18.29,5.38,3.43,5.94,11.79,5.94,16.34v5.38c0,6.68.37,9.28,1.21,12.72Zm-4.46-61.64h-1.67v22.56h1.58c2.79,0,4.64-2.23,4.64-11.79C437.89,339.17,436,337.69,433.34,337.69Z" transform="translate(-152 -324.06)"/><path class="cls-2" d="M473.81,399.33H461.46V327.85h12.35Z" transform="translate(-152 -324.06)"/><path class="cls-2" d="M517.53,384.2c0,11.33-5.76,14.95-15.5,14.95H486.62v-71.3h15.13c10.3,0,15.78,3.9,15.78,16.15Zm-12.35-41.5c0-4.08-1.21-5-3.81-5H499V389.3h2.23c3,0,4-1.21,4-4.55Z" transform="translate(-152 -324.06)"/><path class="cls-2" d="M559.4,399.14h-3.34l-1.86-3.06c-2.6,3-5.85,4.18-11.6,4.18-8.36,0-13.74-4.74-13.74-14.3V342.51c0-10.58,5.94-15.88,15.13-15.88,8.45,0,13.74,3.34,13.74,16a62.24,62.24,0,0,1-.65,9.1L547.7,351a45.19,45.19,0,0,0,.56-7.06c0-6.78-1.49-7.8-3.53-7.8-2.79,0-3.53,1.49-3.53,4.74v46c0,2.69,1,4.08,3.43,4.08,1.95,0,3-1.39,3-4.08V365H559.4Z" transform="translate(-152 -324.06)"/><path class="cls-2" d="M596.62,399.14H571.56v-71.3h25v9.84H583.9v19.77h10.49v10H583.9V389.3h12.72Z" transform="translate(-152 -324.06)"/><path class="cls-2" d="M620.75,399.14h-11.6V387.73h11.6Zm-.19-51.34-3.25,29.06H612.4l-3.06-29.24V327.85h11.23Z" transform="translate(-152 -324.06)"/></svg>