<svg xmlns="http://www.w3.org/2000/svg" viewBox="0 0 369.68 131.79"><defs><style>.cls-1{fill:#c82e29;}.cls-2{fill:#ffc000;}</style></defs><title>Top10</title><g id="Ebene_2" data-name="Ebene 2"><g id="Ebene_1-2" data-name="Ebene 1"><path class="cls-1" d="M55.11,19.18H38.19v107H16.76v-107H0V2.09H55.11Z"/><path class="cls-1" d="M126.83,100.39c0,20.31-12.09,27.4-26.43,27.4-14.66,0-27.07-7.57-27.07-27.4v-73C73.33,7.25,85.9,0,100.41,0s26.43,7.09,26.43,27.4ZM105.56,23.2c0-4.84-2.74-6.77-5.32-6.77-3.22,0-5.48,1.93-5.48,6.77v81.22c0,4.67,2.1,6.77,5.64,6.77,3.22,0,5.16-1.93,5.16-6.61Z"/><path class="cls-1" d="M174.22,81.54h-4.84v44.32H148V2.09h25.46c18.37,0,27.4,9.83,27.4,39.16C200.81,72.2,189.37,81.54,174.22,81.54Zm-2.58-62.36h-2.26V64.46h2.42c4.83,0,8.06-4.84,8.06-23.37C179.86,23.85,177,19.18,171.64,19.18Z"/><path class="cls-1" d="M288.81,126.18H268.66V32.39H249.49V18.53c6.93-.16,16.12-2.09,19.66-5.8,2.74-2.9,4.19-6.12,5.48-10.63h14.18Z"/><path class="cls-1" d="M365.68,101.52c0,19.34-10.15,26.27-24.66,26.27-15.47,0-25.62-7.41-25.62-27.23V25.62C315.4,7.73,325.88,0,340.87,0c14.83,0,24.82,7.09,24.82,25.3ZM345.7,24c0-5.48-1.45-7.41-4.84-7.41-3.71,0-5.16,1.93-5.16,7.73V103c0,6,1.29,8.22,5.16,8.22,3.22,0,4.84-2.26,4.84-7.9Z"/><path class="cls-2" d="M59.11,23.18H42.19v107H20.76v-107H4V6.09H59.11Z"/><path class="cls-2" d="M130.83,104.39c0,20.31-12.09,27.4-26.43,27.4-14.66,0-27.07-7.57-27.07-27.4v-73C77.33,11.25,89.9,4,104.41,4s26.43,7.09,26.43,27.4ZM109.56,27.2c0-4.84-2.74-6.77-5.32-6.77-3.22,0-5.48,1.93-5.48,6.77v81.22c0,4.67,2.1,6.77,5.64,6.77,3.22,0,5.16-1.93,5.16-6.61Z"/><path class="cls-2" d="M178.22,85.54h-4.84v44.32H152V6.09h25.46c18.37,0,27.4,9.83,27.4,39.16C204.81,76.2,193.37,85.54,178.22,85.54Zm-2.58-62.36h-2.26V68.46h2.42c4.83,0,8.06-4.84,8.06-23.37C183.86,27.85,181,23.18,175.64,23.18Z"/><path class="cls-2" d="M292.81,130.18H272.66V36.39H253.49V22.53c6.93-.16,16.12-2.09,19.66-5.8,2.74-2.9,4.19-6.12,5.48-10.63h14.18Z"/><path class="cls-2" d="M369.68,105.52c0,19.34-10.15,26.27-24.66,26.27-15.47,0-25.62-7.41-25.62-27.23V29.62C319.4,11.73,329.88,4,344.87,4c14.83,0,24.82,7.09,24.82,25.3ZM349.7,28c0-5.48-1.45-7.41-4.84-7.41-3.71,0-5.16,1.93-5.16,7.73V107c0,6,1.29,8.22,5.16,8.22,3.22,0,4.84-2.26,4.84-7.9Z"/></g></g></svg>