<svg xmlns="http://www.w3.org/2000/svg" viewBox="0 0 543.33 175.96"><defs><style>.cls-1{fill:#c82e29;}.cls-2{fill:#ffc000;}</style></defs><title>Upload</title><g id="Ebene_2" data-name="Ebene 2"><g id="Ebene_1-2" data-name="Ebene 1"><path class="cls-1" d="M69.67,134.66c0,22.8-14.06,34.3-34.94,34.3C13.21,169,0,157.45,0,134.87V2.77H28.12V137.64c0,6.18,3.2,9.37,8.1,9.37,4.47,0,6.39-3.19,6.39-9.59V2.77H69.67Z"/><path class="cls-1" d="M133,107.81h-6.39V166.4H98.23V2.77h33.67c24.29,0,36.22,13,36.22,51.78C168.12,95.45,153,107.81,133,107.81Zm-3.41-82.45h-3V85.22h3.2c6.39,0,10.65-6.39,10.65-30.89C140.42,31.53,136.58,25.35,129.55,25.35Z"/><path class="cls-1" d="M251.22,166.83H193.69V2.77H222V143.6h29.19Z"/><path class="cls-1" d="M343.91,132.74c0,26.85-16,36.22-34.94,36.22-19.39,0-35.79-10-35.79-36.22V36.22C273.18,9.59,289.8,0,309,0s34.94,9.37,34.94,36.22ZM315.79,30.68c0-6.39-3.62-8.95-7-8.95-4.26,0-7.25,2.55-7.25,8.95V138.06c0,6.18,2.77,8.95,7.46,8.95,4.26,0,6.82-2.55,6.82-8.73Z"/><path class="cls-1" d="M440.44,166.4H411.89l-2.13-22.8H392.93l-2.13,22.8H367.15L388.24,2.77h30.47ZM407,120.81l-5.11-65.2-6.6,65.2Z"/><path class="cls-1" d="M536.33,132.1c0,26-13.21,34.3-35.58,34.3H465.38V2.77h34.73c23.65,0,36.22,8.95,36.22,37.07ZM508,36.86c0-9.38-2.77-11.51-8.73-11.51h-5.54V143.82h5.11c6.82,0,9.16-2.77,9.16-10.44Z"/><path class="cls-2" d="M76.67,141.66c0,22.8-14.06,34.3-34.94,34.3C20.21,176,7,164.45,7,141.87V9.77H35.12V144.64c0,6.18,3.2,9.37,8.1,9.37,4.47,0,6.39-3.19,6.39-9.59V9.77H76.67Z"/><path class="cls-2" d="M140,114.81h-6.39V173.4H105.23V9.77h33.67c24.29,0,36.22,13,36.22,51.78C175.12,102.45,160,114.81,140,114.81Zm-3.41-82.45h-3V92.22h3.2c6.39,0,10.65-6.39,10.65-30.89C147.42,38.53,143.58,32.35,136.55,32.35Z"/><path class="cls-2" d="M258.22,173.83H200.69V9.77H229V150.6h29.19Z"/><path class="cls-2" d="M350.91,139.74c0,26.85-16,36.22-34.94,36.22-19.39,0-35.79-10-35.79-36.22V43.22C280.18,16.59,296.8,7,316,7s34.94,9.37,34.94,36.22ZM322.79,37.68c0-6.39-3.62-8.95-7-8.95-4.26,0-7.25,2.55-7.25,8.95V145.06c0,6.18,2.77,8.95,7.46,8.95,4.26,0,6.82-2.55,6.82-8.73Z"/><path class="cls-2" d="M447.44,173.4H418.89l-2.13-22.8H399.93l-2.13,22.8H374.15L395.24,9.77h30.47ZM414,127.81l-5.11-65.2-6.6,65.2Z"/><path class="cls-2" d="M543.33,139.1c0,26-13.21,34.3-35.58,34.3H472.38V9.77h34.73c23.65,0,36.22,8.95,36.22,37.07ZM515,43.86c0-9.38-2.77-11.51-8.73-11.51h-5.54V150.82h5.11c6.82,0,9.16-2.77,9.16-10.44Z"/></g></g></svg>